<svg width="62" height="62" viewBox="0 0 62 62" fill="none" xmlns="http://www.w3.org/2000/svg">
<rect width="62" height="62" rx="31" fill="#D47609"/>
<path d="M23.5872 25.4326L23.5872 23.8996C23.5872 23.2505 24.112 22.7257 24.7577 22.7291L38.1782 22.7257C38.8273 22.7257 39.3521 23.2505 39.3487 23.8961L39.3487 37.3201C39.3487 37.9692 38.8239 38.494 38.1782 38.4906H36.6452C35.9892 38.4906 35.461 37.9485 35.4748 37.2925L35.6716 29.1684L25.7486 39.0913C25.2894 39.5505 24.5505 39.5505 24.0913 39.0913L22.9865 37.9865C22.5273 37.5273 22.5273 36.7884 22.9865 36.3292L32.9095 26.4062L24.7853 26.603C24.1259 26.6203 23.5838 26.092 23.5872 25.4326Z" fill="#EFEBE2"/>
</svg>
