<svg width="62" height="62" viewBox="0 0 62 62" fill="none" xmlns="http://www.w3.org/2000/svg">
<path fill-rule="evenodd" clip-rule="evenodd" d="M31 0C13.8792 0 0 13.8792 0 31C0 48.1208 13.8792 62 31 62C48.1208 62 62 48.1208 62 31C62 13.8792 48.1208 0 31 0ZM42.9737 24.0503L40.9219 33.0781C40.8141 33.5523 40.3925 33.8889 39.9061 33.8889H27.1828L27.4669 35.2778H39.117C39.7854 35.2778 40.2809 35.8985 40.1327 36.5503L39.8933 37.604C40.7045 37.9977 41.2639 38.8293 41.2639 39.7917C41.2639 41.134 40.1757 42.2222 38.8333 42.2222C37.491 42.2222 36.4028 41.134 36.4028 39.7917C36.4028 39.1114 36.6826 38.4967 37.1329 38.0556H28.0337C28.4841 38.4967 28.7639 39.1114 28.7639 39.7917C28.7639 41.134 27.6757 42.2222 26.3333 42.2222C24.991 42.2222 23.9028 41.134 23.9028 39.7917C23.9028 38.8898 24.3943 38.1033 25.1237 37.6838L22.0748 22.7778H19.0417C18.4664 22.7778 18 22.3114 18 21.7361V21.0417C18 20.4664 18.4664 20 19.0417 20H23.4917C23.9865 20 24.4131 20.3481 24.5122 20.8329L24.9101 22.7778H41.9579C42.6263 22.7778 43.1218 23.3985 42.9737 24.0503Z" fill="#255D38"/>
</svg>
