<svg width="25" height="26" viewBox="0 0 25 26" fill="none" xmlns="http://www.w3.org/2000/svg">
<path d="M12.5028 6.35954C8.95566 6.35954 6.09453 9.22131 6.09453 12.7692C6.09453 16.3171 8.95566 19.1789 12.5028 19.1789C16.0499 19.1789 18.911 16.3171 18.911 12.7692C18.911 9.22131 16.0499 6.35954 12.5028 6.35954ZM12.5028 16.9364C10.2105 16.9364 8.33659 15.0676 8.33659 12.7692C8.33659 10.4709 10.205 8.60209 12.5028 8.60209C14.8006 8.60209 16.669 10.4709 16.669 12.7692C16.669 15.0676 14.795 16.9364 12.5028 16.9364ZM20.6679 6.09735C20.6679 6.92855 19.9986 7.59239 19.1732 7.59239C18.3422 7.59239 17.6785 6.92297 17.6785 6.09735C17.6785 5.27174 18.3477 4.60232 19.1732 4.60232C19.9986 4.60232 20.6679 5.27174 20.6679 6.09735ZM24.9122 7.6147C24.8173 5.61202 24.36 3.83806 22.8932 2.3765C21.432 0.914936 19.6584 0.4575 17.6562 0.357087C15.5926 0.239939 9.40742 0.239939 7.34384 0.357087C5.34718 0.451922 3.57362 0.909358 2.1068 2.37092C0.639989 3.83249 0.188232 5.60645 0.0878416 7.60912C-0.0292805 9.67316 -0.0292805 15.8597 0.0878416 17.9237C0.182655 19.9264 0.639989 21.7004 2.1068 23.162C3.57362 24.6235 5.34161 25.081 7.34384 25.1814C9.40742 25.2985 15.5926 25.2985 17.6562 25.1814C19.6584 25.0865 21.432 24.6291 22.8932 23.162C24.3544 21.7004 24.8118 19.9264 24.9122 17.9237C25.0293 15.8597 25.0293 9.67874 24.9122 7.6147ZM22.2462 20.1384C21.8112 21.2318 20.969 22.0741 19.8703 22.5148C18.225 23.1675 14.321 23.0169 12.5028 23.0169C10.6846 23.0169 6.77496 23.162 5.13525 22.5148C4.04211 22.0797 3.19994 21.2374 2.75934 20.1384C2.1068 18.4928 2.25739 14.5878 2.25739 12.7692C2.25739 10.9506 2.11238 7.04012 2.75934 5.40004C3.19437 4.30666 4.03653 3.46431 5.13525 3.02361C6.78054 2.37092 10.6846 2.52154 12.5028 2.52154C14.321 2.52154 18.2306 2.3765 19.8703 3.02361C20.9635 3.45873 21.8056 4.30108 22.2462 5.40004C22.8988 7.0457 22.7482 10.9506 22.7482 12.7692C22.7482 14.5878 22.8988 18.4983 22.2462 20.1384Z" fill="#255D38"/>
</svg>
