<svg width="19" height="15" viewBox="0 0 19 15" fill="none" xmlns="http://www.w3.org/2000/svg">
<path d="M18.64 4.70547C18.7848 4.59043 19 4.69805 19 4.87988V12.4688C19 13.4521 18.2021 14.25 17.2188 14.25H1.78125C0.797852 14.25 0 13.4521 0 12.4688V4.88359C0 4.69805 0.211523 4.59414 0.359961 4.70918C1.19121 5.35488 2.29336 6.175 6.07852 8.9248C6.86152 9.49629 8.18262 10.6986 9.5 10.6912C10.8248 10.7023 12.1719 9.47402 12.9252 8.9248C16.7104 6.175 17.8088 5.35117 18.64 4.70547ZM9.5 9.5C10.3609 9.51484 11.6004 8.41641 12.2238 7.96367C17.1482 4.39004 17.523 4.07832 18.6586 3.1877C18.8738 3.0207 19 2.76094 19 2.48633V1.78125C19 0.797852 18.2021 0 17.2188 0H1.78125C0.797852 0 0 0.797852 0 1.78125V2.48633C0 2.76094 0.126172 3.01699 0.341406 3.1877C1.47695 4.07461 1.85176 4.39004 6.77617 7.96367C7.39961 8.41641 8.63906 9.51484 9.5 9.5Z" fill="#255D38"/>
</svg>
