<svg width="62" height="62" viewBox="0 0 62 62" fill="none" xmlns="http://www.w3.org/2000/svg">
<rect width="62" height="62" rx="31" fill="#255D38"/>
<path d="M30.5028 24.0903C26.9557 24.0903 24.0945 26.9521 24.0945 30.5C24.0945 34.0479 26.9557 36.9097 30.5028 36.9097C34.0499 36.9097 36.911 34.0479 36.911 30.5C36.911 26.9521 34.0499 24.0903 30.5028 24.0903ZM30.5028 34.6671C28.2105 34.6671 26.3366 32.7983 26.3366 30.5C26.3366 28.2017 28.205 26.3329 30.5028 26.3329C32.8006 26.3329 34.669 28.2017 34.669 30.5C34.669 32.7983 32.795 34.6671 30.5028 34.6671ZM38.6679 23.8281C38.6679 24.6593 37.9986 25.3232 37.1732 25.3232C36.3422 25.3232 35.6785 24.6537 35.6785 23.8281C35.6785 23.0025 36.3477 22.3331 37.1732 22.3331C37.9986 22.3331 38.6679 23.0025 38.6679 23.8281ZM42.9122 25.3455C42.8173 23.3428 42.36 21.5688 40.8932 20.1073C39.432 18.6457 37.6584 18.1883 35.6562 18.0879C33.5926 17.9707 27.4074 17.9707 25.3438 18.0879C23.3472 18.1827 21.5736 18.6401 20.1068 20.1017C18.64 21.5633 18.1882 23.3372 18.0878 25.3399C17.9707 27.4039 17.9707 33.5905 18.0878 35.6545C18.1827 37.6572 18.64 39.4312 20.1068 40.8927C21.5736 42.3543 23.3416 42.8117 25.3438 42.9121C27.4074 43.0293 33.5926 43.0293 35.6562 42.9121C37.6584 42.8173 39.432 42.3599 40.8932 40.8927C42.3544 39.4312 42.8118 37.6572 42.9122 35.6545C43.0293 33.5905 43.0293 27.4095 42.9122 25.3455ZM40.2462 37.8692C39.8112 38.9626 38.969 39.8049 37.8703 40.2456C36.225 40.8983 32.321 40.7477 30.5028 40.7477C28.6846 40.7477 24.775 40.8927 23.1352 40.2456C22.0421 39.8105 21.1999 38.9681 20.7593 37.8692C20.1068 36.2235 20.2574 32.3186 20.2574 30.5C20.2574 28.6814 20.1124 24.7709 20.7593 23.1308C21.1944 22.0374 22.0365 21.1951 23.1352 20.7544C24.7805 20.1017 28.6846 20.2523 30.5028 20.2523C32.321 20.2523 36.2306 20.1073 37.8703 20.7544C38.9635 21.1895 39.8056 22.0319 40.2462 23.1308C40.8988 24.7765 40.7482 28.6814 40.7482 30.5C40.7482 32.3186 40.8988 36.2291 40.2462 37.8692Z" fill="#EFEBE2"/>
</svg>
