<svg width="126" height="74" viewBox="0 0 126 74" fill="none" xmlns="http://www.w3.org/2000/svg">
<path d="M40.782 39.0681C41.1689 39.0184 41.4893 39.1588 41.7435 39.4891C42.0274 39.8156 42.2094 40.2913 42.2897 40.9162C42.4386 42.0766 42.2744 43.0353 41.7969 43.7923C40.3866 45.9999 38.9444 47.6066 37.4705 48.6125C36.0264 49.6146 34.2034 50.257 32.0014 50.5397C30.4541 50.7384 29.001 50.7283 27.6421 50.5096C26.2832 50.2909 24.6168 49.915 22.6428 49.3821C20.8512 48.8559 19.1363 48.4561 17.4982 48.1825C16.3359 51.1446 14.2372 52.8205 11.2022 53.2102C9.53584 53.4241 8.16395 53.2222 7.0865 52.6044C5.97548 51.9606 5.34355 51.0436 5.19073 49.8534C5.00353 48.3954 5.54806 47.1005 6.82433 45.9687C8.09677 44.8072 9.89347 44.0775 12.2144 43.7795L12.7947 43.705L11.9304 30.6135C11.7269 27.615 11.9473 25.0913 12.5917 23.0426C13.236 20.9939 14.2589 19.1839 15.6602 17.6126C16.8761 16.2467 18.3237 15.1534 20.0029 14.3329C21.6782 13.4826 23.4978 12.9314 25.4617 12.6793C28.6753 12.2666 31.252 12.7827 33.1918 14.2274C35.1316 15.6722 36.2734 17.7336 36.6172 20.4116C36.8503 22.2267 36.7121 23.7416 36.2026 24.9564C35.6894 26.1414 34.8525 26.8084 33.692 26.9574C32.8589 27.0644 32.1794 26.955 31.6536 26.6293C31.1241 26.2739 30.8115 25.7242 30.716 24.9803C30.6816 24.7125 30.6781 24.2139 30.7054 23.4845C30.777 22.6284 30.7708 21.873 30.6867 21.2184C30.5262 19.9686 30.0282 19.0345 29.1926 18.4158C28.383 17.7636 27.2343 17.533 25.7465 17.7241C23.128 18.0603 21.2154 19.183 20.0087 21.0922C18.7982 22.9716 18.2345 25.7662 18.3176 29.4758L18.5919 39.7394C18.6265 41.1868 18.5916 42.4465 18.4873 43.5185C20.4337 43.6013 22.881 43.8164 25.8292 44.1638C27.549 44.3664 28.8667 44.4997 29.7823 44.5636C30.6979 44.6276 31.4979 44.6156 32.1823 44.5277C33.9081 44.3061 35.3447 43.8343 36.4921 43.1123C37.6655 42.3568 38.7205 41.2685 39.6572 39.8477C39.9607 39.3853 40.3357 39.1254 40.782 39.0681ZM44.269 48.9646C42.93 49.1365 41.7508 48.6679 40.7312 47.5587C39.7376 46.4159 39.1223 44.9221 38.8855 43.0773C38.5989 40.8456 38.486 38.7882 38.5467 36.9052C38.6036 34.9923 38.8405 32.9505 39.2574 30.7798C39.4404 29.8489 39.7748 29.1557 40.2608 28.7001C40.7467 28.2445 41.5699 27.9422 42.7304 27.7932C43.385 27.7091 43.8447 27.756 44.1095 27.9337C44.404 28.1076 44.5781 28.4028 44.6315 28.8194C44.6621 29.0575 44.6016 29.8819 44.45 31.2927C44.2938 32.4318 44.1838 33.4592 44.1198 34.3748C43.9259 37.5756 43.8957 39.6967 44.0295 40.7381C44.1097 41.363 44.2414 41.7998 44.4246 42.0485C44.6039 42.2674 44.8572 42.3559 45.1845 42.3139C45.6309 42.2566 46.124 41.7396 46.6641 40.7628C47.2338 39.7823 47.7741 38.3367 48.285 36.4261C48.8256 34.5117 49.2829 32.1845 49.6571 29.4445C49.7805 28.5213 50.0554 27.8357 50.4818 27.3877C50.938 26.936 51.6571 26.647 52.639 26.521C53.3234 26.4331 53.811 26.4612 54.1017 26.6054C54.3886 26.7198 54.5607 27.0001 54.618 27.4465C54.7135 28.1904 54.6033 30.2764 54.2873 33.7046C53.9431 37.6203 53.8284 40.0245 53.943 40.9171C54.0156 41.4825 54.1919 41.9135 54.472 42.2103C54.7482 42.4773 55.0798 42.5859 55.4666 42.5363C56.0617 42.4599 56.7151 42.013 57.4268 41.1957C58.1645 40.3449 59.1126 39.0133 60.2713 37.201C60.5748 36.7385 60.9498 36.4787 61.3961 36.4214C61.783 36.3717 62.1034 36.512 62.3576 36.8424C62.6415 37.1689 62.8235 37.6446 62.9038 38.2694C63.0566 39.4597 62.8923 40.4184 62.411 41.1456C61.334 42.8869 60.1166 44.359 58.7587 45.5617C57.4305 46.7606 55.8291 47.4804 53.9545 47.7211C52.5263 47.9044 51.3993 47.4896 50.5735 46.4765C49.7775 45.4596 49.2516 43.9543 48.9956 41.9607C48.7495 44.049 48.1913 45.7086 47.321 46.9395C46.4468 48.1406 45.4295 48.8156 44.269 48.9646ZM63.1029 22.1831C61.8532 22.3435 60.8796 22.1812 60.1821 21.6961C59.4809 21.1812 59.0634 20.403 58.9296 19.3616C58.7959 18.3201 59.0868 17.4056 59.8024 16.6181C60.5438 15.797 61.5246 15.3081 62.7446 15.1515C63.8455 15.0101 64.7726 15.1633 65.5257 15.611C66.2789 16.0588 66.7185 16.7736 66.8446 17.7556C66.9974 18.9458 66.7328 19.9476 66.0509 20.7611C65.3651 21.5448 64.3824 22.0188 63.1029 22.1831ZM65.8232 46.1972C63.8891 46.4455 62.3879 45.9426 61.3194 44.6885C60.2808 43.4305 59.6163 41.6708 59.3259 39.4093C59.154 38.0703 59.098 36.3384 59.1579 34.2134C59.2437 32.0549 59.4379 30.0337 59.7404 28.1499C59.886 27.1633 60.159 26.4628 60.5595 26.0485C60.96 25.6341 61.6512 25.3639 62.6331 25.2378C64.1507 25.0429 64.9744 25.4514 65.1043 26.4631C65.1998 27.207 65.1387 28.9691 64.921 31.7495C64.6271 35.1143 64.5547 37.3769 64.7037 38.5374C64.8183 39.4301 65.0252 40.0992 65.3243 40.5447C65.6235 40.9902 66.0558 41.1767 66.6211 41.1041C67.1567 41.0353 67.7785 40.5774 68.4864 39.7304C69.1943 38.8833 70.1146 37.5705 71.2473 35.7917C71.5509 35.3293 71.9258 35.0694 72.3722 35.0121C72.759 34.9625 73.0795 35.1028 73.3336 35.4331C73.6175 35.7596 73.7996 36.2353 73.8798 36.8602C74.0326 38.0504 73.8684 39.0091 73.387 39.7363C70.9035 43.715 68.3822 45.8686 65.8232 46.1972ZM79.8424 44.3972C76.9263 44.7716 74.5449 44.2456 72.6983 42.8192C70.8775 41.3591 69.7933 39.2752 69.4456 36.5675C69.1362 34.1573 69.341 31.9835 70.0601 30.0461C70.7793 28.1088 71.8346 26.5517 73.2261 25.3749C74.6175 24.1981 76.1464 23.5028 77.8127 23.2888C79.4493 23.0787 80.777 23.4073 81.7957 24.2746C82.8404 25.1084 83.4602 26.284 83.655 27.8016C83.8155 29.0513 83.6684 30.1439 83.2138 31.0794C82.789 32.0111 82.1303 32.5343 81.2376 32.6489C80.6723 32.7215 80.1938 32.6468 79.8024 32.4248C79.4407 32.1991 79.2293 31.8481 79.1682 31.372C79.1414 31.1637 79.1406 30.9219 79.1657 30.6464C79.1909 30.371 79.2107 30.1718 79.2251 30.049C79.3166 29.5836 79.3375 29.1574 79.2878 28.7706C79.2382 28.3838 79.0958 28.0996 78.8608 27.918C78.6555 27.7327 78.3743 27.6629 78.0173 27.7088C77.3329 27.7966 76.7333 28.1912 76.2184 28.8925C75.6997 29.564 75.3286 30.4434 75.1053 31.5307C74.8819 32.618 74.8505 33.7865 75.0109 35.0363C75.4541 38.4879 77.1784 40.0208 80.1837 39.635C81.4037 39.4783 82.6614 38.9085 83.9567 37.9256C85.278 36.909 86.518 35.4946 87.6766 33.6823C87.9802 33.2199 88.3552 32.96 88.8015 32.9027C89.1883 32.853 89.5088 32.9934 89.763 33.3237C90.0468 33.6502 90.2289 34.1259 90.3091 34.7508C90.4543 35.8815 90.2901 36.8402 89.8164 37.6269C88.6395 39.5323 87.1302 41.0872 85.2886 42.2915C83.4729 43.4623 81.6575 44.1642 79.8424 44.3972ZM106.35 30.6496C106.737 30.5999 107.057 30.7403 107.311 31.0706C107.595 31.3971 107.777 31.8728 107.857 32.4977C108.01 33.6879 107.846 34.6466 107.365 35.3738C106.436 36.8542 105.032 38.2896 103.154 39.6801C101.305 41.0668 99.2356 41.9073 96.9444 42.2014C93.82 42.6026 91.286 42.0659 89.3424 40.5914C87.3989 39.1169 86.2379 36.9068 85.8597 33.9609C85.5961 31.9078 85.7831 29.948 86.4206 28.0817C87.0543 26.1855 88.063 24.6193 89.4468 23.383C90.8604 22.1429 92.5343 21.3987 94.4684 21.1503C96.1942 20.9288 97.6447 21.2718 98.8199 22.1796C99.9912 23.0575 100.69 24.3743 100.915 26.1299C101.179 28.1831 100.662 30.049 99.3653 31.7279C98.0945 33.3731 95.7589 34.8526 92.3585 36.1663C93.2781 37.4395 94.7794 37.9425 96.8623 37.675C98.2013 37.5031 99.6596 36.8471 101.237 35.7069C102.841 34.5331 104.17 33.1072 105.225 31.4292C105.529 30.9668 105.904 30.7069 106.35 30.6496ZM94.2712 25.6219C93.1703 25.7632 92.3151 26.5233 91.7057 27.9021C91.1261 29.2771 90.9528 30.8722 91.1859 32.6873L91.1973 32.7766C92.8994 32.1346 94.2029 31.3321 95.1076 30.369C96.0123 29.4059 96.394 28.3739 96.2526 27.273C96.18 26.7076 95.9591 26.2823 95.5897 25.997C95.2463 25.6781 94.8068 25.5531 94.2712 25.6219ZM118.195 18.104C118.879 18.0162 119.367 18.0443 119.657 18.1885C119.948 18.3326 120.12 18.613 120.174 19.0296C120.265 19.7437 120.205 22.3375 119.993 26.8109C119.847 31.0943 119.765 33.6305 119.745 34.4194C119.626 42.208 118.886 48.4582 117.525 53.1699C116.164 57.8815 113.876 60.4437 110.663 60.8563C109.145 61.0511 107.849 60.7336 106.775 59.9037C105.704 59.1035 105.071 57.9446 104.877 56.4271C104.697 55.0286 104.826 53.5602 105.264 52.0219C105.731 50.4798 106.706 48.6458 108.187 46.5199C109.702 44.4199 111.895 41.9455 114.765 39.0967L114.767 38.0529C114.834 36.9252 114.87 35.3176 114.874 33.2301C114.554 35.4489 113.931 37.1925 113.005 38.4607C112.075 39.6992 111.015 40.3949 109.825 40.5477C108.486 40.7196 107.306 40.251 106.287 39.1418C105.293 37.999 104.678 36.5052 104.441 34.6603C104.155 32.4287 104.042 30.3713 104.102 28.4882C104.159 26.5754 104.396 24.5336 104.813 22.3628C104.996 21.432 105.33 20.7387 105.816 20.2831C106.302 19.8275 107.126 19.5252 108.286 19.3763C108.941 19.2922 109.4 19.339 109.665 19.5168C109.96 19.6907 110.134 19.9859 110.187 20.4025C110.218 20.6405 110.157 21.465 110.006 22.8757C109.849 24.0149 109.739 25.0423 109.675 25.9579C109.594 27.2084 109.537 28.4105 109.503 29.5642C109.466 30.6881 109.493 31.6071 109.585 32.3212C109.73 33.4519 110.115 33.9772 110.74 33.8969C111.186 33.8396 111.68 33.3226 112.22 32.3459C112.789 31.3654 113.33 29.9198 113.841 28.0092C114.381 26.0947 114.839 23.7675 115.213 21.0276C115.336 20.1044 115.611 19.4188 116.037 18.9708C116.494 18.519 117.213 18.2301 118.195 18.104ZM110.598 56.4638C111.342 56.3683 112.064 55.3984 112.765 53.5541C113.466 51.7099 114.02 48.72 114.426 44.5845C112.383 46.8128 110.942 48.7824 110.103 50.4932C109.298 52.2299 108.972 53.6933 109.125 54.8836C109.19 55.3894 109.332 55.7945 109.553 56.0989C109.803 56.3995 110.152 56.5211 110.598 56.4638Z" fill="#EFEBE2"/>
</svg>
