<svg width="25" height="19" viewBox="0 0 25 19" fill="none" xmlns="http://www.w3.org/2000/svg">
<path d="M24.4776 2.85852C24.1901 1.73334 23.3429 0.847188 22.2673 0.546459C20.3177 0 12.5 0 12.5 0C12.5 0 4.68232 0 2.73266 0.546459C1.65706 0.847236 0.80992 1.73334 0.522399 2.85852C0 4.89796 0 9.15308 0 9.15308C0 9.15308 0 13.4082 0.522399 15.4476C0.80992 16.5728 1.65706 17.422 2.73266 17.7228C4.68232 18.2692 12.5 18.2692 12.5 18.2692C12.5 18.2692 20.3177 18.2692 22.2673 17.7228C23.3429 17.422 24.1901 16.5728 24.4776 15.4476C25 13.4082 25 9.15308 25 9.15308C25 9.15308 25 4.89796 24.4776 2.85852ZM9.94316 13.0164V5.28975L16.4772 9.15317L9.94316 13.0164Z" fill="#255D38"/>
</svg>
