<svg width="62" height="62" viewBox="0 0 62 62" fill="none" xmlns="http://www.w3.org/2000/svg">
<rect width="62" height="62" rx="31" fill="#255D38"/>
<path d="M42.4776 24.8585C42.1901 23.7333 41.3429 22.8472 40.2673 22.5465C38.3177 22 30.5 22 30.5 22C30.5 22 22.6823 22 20.7327 22.5465C19.6571 22.8472 18.8099 23.7333 18.5224 24.8585C18 26.898 18 31.1531 18 31.1531C18 31.1531 18 35.4082 18.5224 37.4476C18.8099 38.5728 19.6571 39.422 20.7327 39.7228C22.6823 40.2692 30.5 40.2692 30.5 40.2692C30.5 40.2692 38.3177 40.2692 40.2673 39.7228C41.3429 39.422 42.1901 38.5728 42.4776 37.4476C43 35.4082 43 31.1531 43 31.1531C43 31.1531 43 26.898 42.4776 24.8585ZM27.9432 35.0164V27.2898L34.4772 31.1532L27.9432 35.0164Z" fill="#EFEBE2"/>
</svg>
